<svg id="cv_application" data-name="cv application" xmlns="http://www.w3.org/2000/svg" width="500" height="500" viewBox="0 0 500 500"><defs><style>.cls-1{fill:#fff;stroke:#979797;stroke-miterlimit:10;stroke-width:20.21px;}.cls-2{fill:#979797;}.cls-3{fill:#42bcdf;}</style></defs><title>icn-job-ad</title><rect class="cls-1" x="95" y="14" width="310" height="471.75" rx="23" ry="23"/><rect class="cls-2" x="119" y="210" width="262" height="14.31" rx="5" ry="5"/><rect class="cls-2" x="119" y="239" width="262" height="14.32" rx="5" ry="5"/><rect class="cls-2" x="119" y="267" width="262" height="14.32" rx="5" ry="5"/><rect class="cls-2" x="119" y="295" width="115" height="14.32" rx="5" ry="5"/><rect class="cls-2" x="266" y="295" width="115" height="14.32" rx="5" ry="5"/><rect class="cls-2" x="119" y="324" width="115" height="14.32" rx="5" ry="5"/><rect class="cls-2" x="266" y="324" width="115" height="14.32" rx="5" ry="5"/><rect class="cls-2" x="119" y="352" width="115" height="14.32" rx="5" ry="5"/><rect class="cls-2" x="266" y="352" width="115" height="14.32" rx="5" ry="5"/><rect class="cls-2" x="119" y="400" width="262" height="14.32" rx="5" ry="5"/><rect class="cls-2" x="119" y="429" width="186" height="14.31" rx="5" ry="5"/><path class="cls-3" d="M250,106a29,29,0,1,0-29-29,29,29,0,0,0,29,29Z"/><path class="cls-3" d="M263,111H237c-21,0-38,17-38,37v30h2a180,180,0,0,0,52,8c28,0,44-8,45-8h2V148c0-20-17-37-38-37Z"/></svg>