<?xml version="1.0" encoding="iso-8859-1"?>
<!-- Generator: Adobe Illustrator 19.0.0, SVG Export Plug-In . SVG Version: 6.00 Build 0)  -->
<svg xmlns="http://www.w3.org/2000/svg" xmlns:xlink="http://www.w3.org/1999/xlink" version="1.1" id="Layer_1" x="0px" y="0px" viewBox="0 0 512 512" style="enable-background:new 0 0 512 512;" xml:space="preserve">
<path style="fill:#F14507;" d="M167.95,272.008h336.19V151.941c0-66.312-53.756-120.068-120.068-120.068H167.95  c-66.312,0-120.068,53.756-120.068,120.068l0,0C47.883,218.253,101.639,272.008,167.95,272.008z"/>
<path style="fill:#FBA218;" d="M175.955,151.853c0-66.312,53.756-120.001,120.068-120.001H167.95  c-66.312,0-120.068,53.689-120.068,120.001s53.756,120.001,120.068,120.001h128.072  C229.711,271.854,175.955,218.164,175.955,151.853z"/>
<path style="fill:#84DCCF;" d="M344.695,480.125H7.86V359.412c0-65.954,53.467-119.421,119.422-119.421h217.413  c65.954,0,119.421,53.467,119.421,119.421v1.291C464.117,426.658,410.65,480.125,344.695,480.125z"/>
<path style="fill:#027EA8;" d="M239.991,240.413H127.927c-66.312,0-120.238,53.334-120.238,119.646v120.356H119.83V360.059  C119.831,293.747,173.679,240.413,239.991,240.413z"/>
<path d="M512,151.941c0-70.54-57.389-127.927-127.929-127.927H167.95c-70.54,0-127.928,57.389-127.928,127.927  c0,34.536,13.49,66.673,37.519,90.539C31.983,262.078,0,307.401,0,360.059v127.927h344.049c70.54,0,127.928-57.389,127.928-127.927  c0-30.338-10.622-58.237-28.333-80.19H512V151.941L512,151.941z M344.049,472.265H15.721V360.059  c0-48.925,31.478-90.629,75.242-105.943c0.071,0.053,0.139,0.11,0.211,0.163l0.242-0.323c11.452-3.951,23.734-6.104,36.512-6.104  h216.122c61.871,0,112.208,50.335,112.208,112.207S405.921,472.265,344.049,472.265z M496.279,264.148h-67.674  c-22.561-19.914-52.169-32.018-84.556-32.018H127.927c-11.625,0-22.888,1.568-33.6,4.487c-24.614-21.34-38.585-51.766-38.585-84.677  c0-61.871,50.335-112.207,112.208-112.207h216.122c61.871,0,112.209,50.335,112.209,112.207v112.208H496.279z"/>
<rect x="96.776" y="287.572" style="fill:#FFFFFF;" width="94.324" height="15.721"/>
<rect x="96.776" y="320.061" style="fill:#FBA218;" width="206.464" height="15.721"/>
<rect x="320.009" y="320.061" style="fill:#FFFFFF;" width="56.594" height="15.721"/>
<rect x="96.776" y="352.55" width="86.987" height="15.721"/>
<rect x="199.484" y="352.55" style="fill:#FBA218;" width="16.769" height="15.721"/>
<g>
	<rect x="231.974" y="352.55" style="fill:#FFFFFF;" width="15.721" height="15.721"/>
	<rect x="264.463" y="352.55" style="fill:#FFFFFF;" width="15.721" height="15.721"/>
</g>
<rect x="96.776" y="383.992" width="199.128" height="15.721"/>
<rect x="96.776" y="415.433" style="fill:#FBA218;" width="62.883" height="15.721"/>
<rect x="159.659" y="80.059" style="fill:#FFFFFF;" width="96.42" height="15.721"/>
<rect x="159.659" y="112.549" width="143.582" height="15.721"/>
<rect x="320.009" y="112.549" style="fill:#84DCCF;" width="103.756" height="15.721"/>
<rect x="159.659" y="143.99" width="15.721" height="15.721"/>
<rect x="191.1" y="143.99" style="fill:#FFFFFF;" width="17.817" height="15.721"/>
<rect x="224.637" y="143.99" width="15.721" height="15.721"/>
<g>
	<rect x="256.079" y="143.99" style="fill:#FFFFFF;" width="15.721" height="15.721"/>
	<rect x="159.659" y="175.431" style="fill:#FFFFFF;" width="39.826" height="15.721"/>
</g>
<rect x="216.253" y="175.431" style="fill:#84DCCF;" width="112.141" height="15.721"/>
<g>
	<rect x="31.795" y="439.538" style="fill:#FFFFFF;" width="15.721" height="15.721"/>
	<rect x="464.639" y="232.026" style="fill:#FFFFFF;" width="15.721" height="15.721"/>
</g>
<g>
</g>
<g>
</g>
<g>
</g>
<g>
</g>
<g>
</g>
<g>
</g>
<g>
</g>
<g>
</g>
<g>
</g>
<g>
</g>
<g>
</g>
<g>
</g>
<g>
</g>
<g>
</g>
<g>
</g>
</svg>
